<svg width="200" height="200" viewBox="0 0 200 200" role="img" xmlns="http://www.w3.org/2000/svg">
  <title>Aksharcore Technologies - Favicon</title>

  <!-- Background circle -->
  <circle cx="100" cy="100" r="98" fill="#FFF8EE" stroke="#D4892A" stroke-width="1.5"/>
  <circle cx="100" cy="100" r="92" fill="none" stroke="#E8A83A" stroke-width="0.6" opacity="0.5" stroke-dasharray="3 3"/>

  <!-- Lotus layer 1 outer -->
  <g opacity="0.30">
    <ellipse cx="100" cy="47" rx="9" ry="24" fill="#F5BE60"/>
    <ellipse cx="100" cy="47" rx="9" ry="24" fill="#F5BE60" transform="rotate(30 100 100)"/>
    <ellipse cx="100" cy="47" rx="9" ry="24" fill="#F5BE60" transform="rotate(60 100 100)"/>
    <ellipse cx="100" cy="47" rx="9" ry="24" fill="#F5BE60" transform="rotate(90 100 100)"/>
    <ellipse cx="100" cy="47" rx="9" ry="24" fill="#F5BE60" transform="rotate(120 100 100)"/>
    <ellipse cx="100" cy="47" rx="9" ry="24" fill="#F5BE60" transform="rotate(150 100 100)"/>
    <ellipse cx="100" cy="47" rx="9" ry="24" fill="#F5BE60" transform="rotate(180 100 100)"/>
    <ellipse cx="100" cy="47" rx="9" ry="24" fill="#F5BE60" transform="rotate(210 100 100)"/>
    <ellipse cx="100" cy="47" rx="9" ry="24" fill="#F5BE60" transform="rotate(240 100 100)"/>
    <ellipse cx="100" cy="47" rx="9" ry="24" fill="#F5BE60" transform="rotate(270 100 100)"/>
    <ellipse cx="100" cy="47" rx="9" ry="24" fill="#F5BE60" transform="rotate(300 100 100)"/>
    <ellipse cx="100" cy="47" rx="9" ry="24" fill="#F5BE60" transform="rotate(330 100 100)"/>
  </g>

  <!-- Lotus layer 2 -->
  <g opacity="0.62">
    <ellipse cx="100" cy="54" rx="8" ry="21" fill="#F0A830" transform="rotate(15 100 100)"/>
    <ellipse cx="100" cy="54" rx="8" ry="21" fill="#F0A830" transform="rotate(45 100 100)"/>
    <ellipse cx="100" cy="54" rx="8" ry="21" fill="#F0A830" transform="rotate(75 100 100)"/>
    <ellipse cx="100" cy="54" rx="8" ry="21" fill="#F0A830" transform="rotate(105 100 100)"/>
    <ellipse cx="100" cy="54" rx="8" ry="21" fill="#F0A830" transform="rotate(135 100 100)"/>
    <ellipse cx="100" cy="54" rx="8" ry="21" fill="#F0A830" transform="rotate(165 100 100)"/>
    <ellipse cx="100" cy="54" rx="8" ry="21" fill="#F0A830" transform="rotate(195 100 100)"/>
    <ellipse cx="100" cy="54" rx="8" ry="21" fill="#F0A830" transform="rotate(225 100 100)"/>
    <ellipse cx="100" cy="54" rx="8" ry="21" fill="#F0A830" transform="rotate(255 100 100)"/>
    <ellipse cx="100" cy="54" rx="8" ry="21" fill="#F0A830" transform="rotate(285 100 100)"/>
    <ellipse cx="100" cy="54" rx="8" ry="21" fill="#F0A830" transform="rotate(315 100 100)"/>
    <ellipse cx="100" cy="54" rx="8" ry="21" fill="#F0A830" transform="rotate(345 100 100)"/>
  </g>

  <!-- Lotus layer 3 -->
  <g opacity="0.90">
    <ellipse cx="100" cy="64" rx="7" ry="17" fill="#E8901A"/>
    <ellipse cx="100" cy="64" rx="7" ry="17" fill="#E8901A" transform="rotate(45 100 100)"/>
    <ellipse cx="100" cy="64" rx="7" ry="17" fill="#E8901A" transform="rotate(90 100 100)"/>
    <ellipse cx="100" cy="64" rx="7" ry="17" fill="#E8901A" transform="rotate(135 100 100)"/>
    <ellipse cx="100" cy="64" rx="7" ry="17" fill="#E8901A" transform="rotate(180 100 100)"/>
    <ellipse cx="100" cy="64" rx="7" ry="17" fill="#E8901A" transform="rotate(225 100 100)"/>
    <ellipse cx="100" cy="64" rx="7" ry="17" fill="#E8901A" transform="rotate(270 100 100)"/>
    <ellipse cx="100" cy="64" rx="7" ry="17" fill="#E8901A" transform="rotate(315 100 100)"/>
  </g>

  <!-- Lotus layer 4 innermost -->
  <g opacity="1">
    <ellipse cx="100" cy="74" rx="6" ry="12" fill="#C87018" transform="rotate(22.5 100 100)"/>
    <ellipse cx="100" cy="74" rx="6" ry="12" fill="#C87018" transform="rotate(67.5 100 100)"/>
    <ellipse cx="100" cy="74" rx="6" ry="12" fill="#C87018" transform="rotate(112.5 100 100)"/>
    <ellipse cx="100" cy="74" rx="6" ry="12" fill="#C87018" transform="rotate(157.5 100 100)"/>
    <ellipse cx="100" cy="74" rx="6" ry="12" fill="#C87018" transform="rotate(202.5 100 100)"/>
    <ellipse cx="100" cy="74" rx="6" ry="12" fill="#C87018" transform="rotate(247.5 100 100)"/>
    <ellipse cx="100" cy="74" rx="6" ry="12" fill="#C87018" transform="rotate(292.5 100 100)"/>
    <ellipse cx="100" cy="74" rx="6" ry="12" fill="#C87018" transform="rotate(337.5 100 100)"/>
  </g>

  <!-- Center bg -->
  <circle cx="100" cy="100" r="30" fill="#FFF3E0" stroke="#C87820" stroke-width="1.4"/>
  <circle cx="100" cy="100" r="23" fill="#FFFAF2" stroke="#D4892A" stroke-width="0.8"/>

  <!-- Swaminarayan Tilak: clean U shape -->
  <path d="M89 82 L89 104 Q89 118 100 118 Q111 118 111 104 L111 82" fill="none" stroke="#E8C020" stroke-width="6" stroke-linecap="round" stroke-linejoin="round"/>

  <!-- Single clean red bindu only -->
  <circle cx="100" cy="101" r="9" fill="#CC2020"/>
</svg>
